#define pops_icon_width 64
#define pops_icon_height 64
static unsigned char pops_icon_bits[] = {
 0xff,0xff,0xff,0xff,0xff,0xff,0xff,0xff,0xff,0xff,0xff,0xff,0xff,0xff,0xff,
 0xff,0x03,0x01,0x20,0x00,0x01,0x10,0x80,0xc0,0x03,0x01,0x20,0x00,0x01,0x10,
 0x80,0xc0,0x03,0x01,0x20,0x00,0x01,0x10,0x80,0xc0,0x03,0x00,0x00,0x00,0x00,
 0x00,0x00,0xc0,0x03,0x00,0x00,0x00,0x00,0x00,0x00,0xc0,0x03,0x00,0x00,0x00,
 0x00,0x00,0x00,0xc0,0x03,0x00,0x00,0x00,0x00,0x70,0x5a,0xc0,0x03,0x00,0x00,
 0x00,0x00,0x50,0x5b,0xc0,0x03,0x00,0x00,0x00,0x00,0x60,0x5a,0xc0,0x1f,0x00,
 0x00,0x00,0x00,0x00,0x00,0xf8,0x03,0x00,0x00,0x00,0x00,0x00,0x00,0xc0,0x03,
 0x00,0x00,0x00,0x00,0x00,0x00,0xc0,0x03,0x00,0x00,0x40,0x00,0x00,0x00,0xc0,
 0x03,0x00,0x00,0x40,0x00,0x00,0x00,0xc0,0x03,0x00,0x00,0xa0,0x00,0x00,0x00,
 0xc0,0x03,0x00,0x00,0xa0,0x00,0x00,0x00,0xc0,0x03,0x00,0x00,0xa0,0x00,0x00,
 0x00,0xc0,0x03,0x00,0x00,0x10,0x01,0x00,0x00,0xc0,0x03,0x00,0x00,0x10,0x01,
 0x00,0x00,0xc0,0x1f,0x00,0x00,0x10,0x01,0x00,0x00,0xf8,0x03,0x00,0x00,0x08,
 0x02,0x00,0x00,0xc0,0x03,0x00,0x00,0x08,0x02,0x00,0x00,0xc0,0x03,0x00,0x00,
 0x08,0x02,0x00,0x00,0xc0,0x03,0x00,0x00,0x04,0x04,0x00,0x00,0xc0,0x03,0x00,
 0x00,0x04,0x04,0x00,0x00,0xc0,0x03,0x00,0x00,0x04,0x04,0x00,0x00,0xc0,0x03,
 0x00,0x00,0x02,0x08,0x00,0x00,0xc0,0x03,0x00,0x00,0x02,0x08,0x00,0x00,0xc0,
 0x03,0x00,0x00,0x02,0x08,0x00,0x00,0xc0,0x03,0x00,0x00,0x01,0x10,0x00,0x00,
 0xc0,0x1f,0x00,0x00,0x01,0x10,0x00,0x00,0xf8,0x03,0x00,0x00,0x01,0x10,0x00,
 0x00,0xc0,0x03,0x00,0x88,0x00,0x20,0x00,0x00,0xc0,0x87,0x00,0x88,0x00,0x20,
 0x08,0x00,0xc0,0x87,0x00,0x8c,0x00,0x20,0x0c,0x00,0xc0,0x47,0x01,0x94,0x00,
 0x40,0x14,0x04,0xc0,0x47,0x21,0x52,0x00,0x40,0x12,0x06,0xc0,0x4b,0x32,0x52,
 0x00,0x40,0x21,0x09,0xc1,0xff,0xff,0xff,0xff,0xff,0xff,0xff,0xff,0x2b,0x4a,
 0x61,0x00,0x80,0xc0,0x48,0xe4,0x2b,0x8c,0x20,0x00,0x00,0x40,0x30,0xd4,0x13,
 0x84,0x00,0x00,0x00,0x00,0x10,0xc8,0x13,0x01,0x20,0x00,0x01,0x10,0x80,0xc0,
 0x03,0x01,0x20,0x00,0x01,0x10,0x80,0xc0,0x03,0x01,0x20,0x00,0x01,0x10,0x80,
 0xc0,0xff,0xff,0xff,0xff,0xff,0xff,0xff,0xff,0xff,0xff,0xff,0xff,0xff,0xff,
 0xff,0xff,0x00,0x00,0x00,0x00,0x00,0x00,0x00,0x00,0x00,0x00,0x00,0x00,0x00,
 0x00,0x00,0x00,0x3e,0x00,0x00,0x00,0x7e,0x00,0x00,0x3c,0x66,0x00,0x00,0x00,
 0x18,0x00,0x00,0x30,0x66,0x3c,0x36,0x3c,0x18,0x3c,0x3c,0x30,0x66,0x66,0x6e,
 0x66,0x18,0x66,0x66,0x30,0x3e,0x66,0x66,0x06,0x18,0x66,0x66,0x30,0x06,0x66,
 0x66,0x3c,0x18,0x66,0x66,0x30,0x06,0x66,0x66,0x60,0x18,0x66,0x66,0x30,0x06,
 0x66,0x6e,0x66,0x18,0x66,0x66,0x30,0x06,0x3c,0x36,0x3c,0x18,0x3c,0x3c,0x30,
 0x00,0x00,0x06,0x00,0x00,0x00,0x00,0x00,0x00,0x00,0x06,0x00,0x00,0x00,0x00,
 0x00,0x00,0x00,0x06,0x00,0x00,0x00,0x00,0x00,0x00,0x00,0x00,0x00,0x00,0x00,
 0x00,0x00};
